solid OpenSCAD_Model
  facet normal 1 0 1.22461e-016
    outer loop
      vertex 0 3 11
      vertex 0 0 11
      vertex 1.34707e-015 0 0
    endloop
  endfacet
  facet normal 1 0 1.22461e-016
    outer loop
      vertex 9.79685e-016 3 3
      vertex 0 3 11
      vertex 1.34707e-015 0 0
    endloop
  endfacet
  facet normal 1 0 1.22461e-016
    outer loop
      vertex 0 24 11
      vertex 0 21 11
      vertex 1.34707e-015 24 0
    endloop
  endfacet
  facet normal 1 0 1.22461e-016
    outer loop
      vertex 0 21 11
      vertex 9.79685e-016 21 3
      vertex 1.34707e-015 24 0
    endloop
  endfacet
  facet normal 1 0 1.22461e-016
    outer loop
      vertex 1.34707e-015 24 0
      vertex 9.79685e-016 3 3
      vertex 1.34707e-015 0 0
    endloop
  endfacet
  facet normal 1 0 1.22461e-016
    outer loop
      vertex 9.79685e-016 21 3
      vertex 9.79685e-016 3 3
      vertex 1.34707e-015 24 0
    endloop
  endfacet
  facet normal 0 -1 0
    outer loop
      vertex 1.34707e-015 0 0
      vertex 0 0 11
      vertex -10 0 11
    endloop
  endfacet
  facet normal 0 -1 0
    outer loop
      vertex -10 0 -1.22461e-015
      vertex 1.34707e-015 0 0
      vertex -10 0 11
    endloop
  endfacet
  facet normal -1.22461e-016 0 1
    outer loop
      vertex -10 0 11
      vertex 0 0 11
      vertex 0 3 11
    endloop
  endfacet
  facet normal -1.22461e-016 0 1
    outer loop
      vertex -10 3 11
      vertex -10 0 11
      vertex 0 3 11
    endloop
  endfacet
  facet normal 0 1 0
    outer loop
      vertex -10 3 3
      vertex -10 3 11
      vertex 9.79685e-016 3 3
    endloop
  endfacet
  facet normal 0 1 0
    outer loop
      vertex 9.79685e-016 3 3
      vertex -10 3 11
      vertex 0 3 11
    endloop
  endfacet
  facet normal -1.22461e-016 0 1
    outer loop
      vertex 9.79685e-016 21 3
      vertex -10 21 3
      vertex -10 3 3
    endloop
  endfacet
  facet normal -1.22461e-016 0 1
    outer loop
      vertex 9.79685e-016 3 3
      vertex 9.79685e-016 21 3
      vertex -10 3 3
    endloop
  endfacet
  facet normal 0 -1 0
    outer loop
      vertex -10 21 11
      vertex -10 21 3
      vertex 9.79685e-016 21 3
    endloop
  endfacet
  facet normal 0 -1 0
    outer loop
      vertex 0 21 11
      vertex -10 21 11
      vertex 9.79685e-016 21 3
    endloop
  endfacet
  facet normal -1.22461e-016 0 1
    outer loop
      vertex -10 21 11
      vertex 0 21 11
      vertex 0 24 11
    endloop
  endfacet
  facet normal -1.22461e-016 0 1
    outer loop
      vertex -10 24 11
      vertex -10 21 11
      vertex 0 24 11
    endloop
  endfacet
  facet normal 0 1 0
    outer loop
      vertex 0 24 11
      vertex 1.34707e-015 24 0
      vertex -10 24 11
    endloop
  endfacet
  facet normal 0 1 0
    outer loop
      vertex -10 24 11
      vertex 1.34707e-015 24 0
      vertex -10 24 -1.22461e-015
    endloop
  endfacet
  facet normal 1.22461e-016 0 -1
    outer loop
      vertex 1.34707e-015 0 0
      vertex -10 0 -1.22461e-015
      vertex 1.34707e-015 24 0
    endloop
  endfacet
  facet normal 1.22461e-016 0 -1
    outer loop
      vertex 1.34707e-015 24 0
      vertex -10 0 -1.22461e-015
      vertex -10 24 -1.22461e-015
    endloop
  endfacet
  facet normal -1 0 -1.22461e-016
    outer loop
      vertex -10 0 11
      vertex -10 3 11
      vertex -10 0 -1.22461e-015
    endloop
  endfacet
  facet normal -1 0 -1.22461e-016
    outer loop
      vertex -10 0 -1.22461e-015
      vertex -10 3 11
      vertex -10 3 3
    endloop
  endfacet
  facet normal -1 0 -1.22461e-016
    outer loop
      vertex -10 0 -1.22461e-015
      vertex -10 3 3
      vertex -10 21 3
    endloop
  endfacet
  facet normal -1 0 -1.22461e-016
    outer loop
      vertex -10 21 3
      vertex -10 21 11
      vertex -10 24 11
    endloop
  endfacet
  facet normal -1 0 -1.22461e-016
    outer loop
      vertex -10 21 3
      vertex -10 24 11
      vertex -10 24 -1.22461e-015
    endloop
  endfacet
  facet normal -1 0 -1.22461e-016
    outer loop
      vertex -10 21 3
      vertex -10 24 -1.22461e-015
      vertex -10 0 -1.22461e-015
    endloop
  endfacet
endsolid OpenSCAD_Model
