<?xml version="1.0" standalone="no"?>
<!DOCTYPE svg PUBLIC "-//W3C//DTD SVG 20010904//EN"
 "http://www.w3.org/TR/2001/REC-SVG-20010904/DTD/svg10.dtd">
<svg version="1.0" xmlns="http://www.w3.org/2000/svg"
 width="1040.000000pt" height="883.000000pt" viewBox="0 0 1040.000000 883.000000"
 preserveAspectRatio="xMidYMid meet">
<metadata>
Created by potrace 1.11, written by Peter Selinger 2001-2013
</metadata>
<g transform="translate(0.000000,883.000000) scale(0.100000,-0.100000)"
fill="#000000" stroke="none">
<path d="M4225 7759 c-44 -4 -111 -18 -150 -31 l-70 -23 -39 -108 -39 -108 51
-187 c55 -202 93 -386 173 -837 28 -159 87 -447 131 -640 44 -192 99 -454 123
-581 24 -127 58 -286 75 -355 52 -201 49 -279 -27 -744 l-62 -380 -10 -345
c-24 -818 -24 -856 -1 -1135 16 -193 30 -302 56 -423 31 -147 40 -174 99 -292
35 -71 93 -173 128 -227 56 -86 75 -107 153 -165 101 -75 143 -98 176 -98 48
0 100 23 147 63 26 23 73 61 103 84 55 42 68 66 68 127 0 13 -28 51 -71 95
-199 207 -293 395 -368 736 -50 231 -51 242 -50 604 0 379 2 401 48 801 48
413 91 666 120 702 9 11 35 24 56 28 22 5 119 36 215 69 99 34 248 76 345 97
94 20 223 49 287 65 163 40 566 80 963 94 146 5 202 2 390 -20 495 -58 753
-102 935 -159 41 -14 92 -27 113 -31 l37 -6 0 -91 0 -90 41 -49 c47 -56 129
-119 155 -119 31 0 158 43 167 57 4 7 16 13 26 13 41 0 85 173 96 380 l7 125
-49 130 c-28 72 -62 177 -78 235 -44 165 -295 712 -447 975 -50 86 -135 208
-219 315 -120 154 -154 189 -275 292 -77 64 -215 182 -309 262 -156 134 -188
156 -380 266 -128 73 -270 144 -365 183 -85 36 -222 97 -305 137 -82 39 -267
114 -410 166 -223 81 -282 98 -425 124 l-165 30 -545 -1 c-300 -1 -581 -5
-625 -10z"/>
</g>
</svg>
