<?xml version="1.0" standalone="no"?>
<!DOCTYPE svg PUBLIC "-//W3C//DTD SVG 20010904//EN"
 "http://www.w3.org/TR/2001/REC-SVG-20010904/DTD/svg10.dtd">
<svg version="1.0" xmlns="http://www.w3.org/2000/svg"
 width="1040.000000pt" height="883.000000pt" viewBox="0 0 1040.000000 883.000000"
 preserveAspectRatio="xMidYMid meet">
<metadata>
Created by potrace 1.11, written by Peter Selinger 2001-2013
</metadata>
<g transform="translate(0.000000,883.000000) scale(0.100000,-0.100000)"
fill="#000000" stroke="none">
<path d="M6780 4693 c-324 -11 -758 -55 -906 -91 -65 -17 -195 -46 -289 -66
-206 -45 -491 -138 -555 -182 l-45 -31 -76 -723 -77 -723 3 -321 3 -321 57
-150 c91 -241 201 -436 289 -511 43 -38 45 -42 60 -130 22 -126 18 -138 -70
-208 -41 -33 -74 -62 -74 -65 1 -20 161 -77 1220 -436 646 -218 1190 -404
1208 -413 22 -10 37 -11 43 -5 5 5 39 106 74 224 36 118 74 237 85 264 11 28
202 658 424 1400 223 743 441 1469 485 1615 45 146 81 274 80 285 0 11 -14 31
-31 44 l-30 24 -65 -21 -65 -22 -47 34 c-83 61 -95 86 -101 206 l-5 105 -60
11 c-33 6 -89 20 -125 32 -164 54 -441 101 -922 157 -200 23 -275 26 -488 18z"/>
</g>
</svg>
